<?xml version="1.0" encoding="UTF-8" standalone="no"?>
<svg
   xmlns:dc="http://purl.org/dc/elements/1.1/"
   xmlns:cc="http://creativecommons.org/ns#"
   xmlns:rdf="http://www.w3.org/1999/02/22-rdf-syntax-ns#"
   xmlns:svg="http://www.w3.org/2000/svg"
   xmlns="http://www.w3.org/2000/svg"
   xmlns:sodipodi="http://sodipodi.sourceforge.net/DTD/sodipodi-0.dtd"
   xmlns:inkscape="http://www.inkscape.org/namespaces/inkscape"
   id="svg4"
   version="1.1"
   viewBox="0 0 550 180"
   height="2.5in"
   width="7.63889in"
   sodipodi:docname="black_horizontal.svg"
   inkscape:version="0.92.3 (2405546, 2018-03-11)">
  <sodipodi:namedview
     pagecolor="#ffffff"
     bordercolor="#666666"
     borderopacity="1"
     objecttolerance="10"
     gridtolerance="10"
     guidetolerance="10"
     inkscape:pageopacity="0"
     inkscape:pageshadow="2"
     inkscape:window-width="1853"
     inkscape:window-height="1025"
     id="namedview5934"
     showgrid="false"
     inkscape:zoom="1.2957684"
     inkscape:cx="395.71354"
     inkscape:cy="74.934177"
     inkscape:window-x="67"
     inkscape:window-y="27"
     inkscape:window-maximized="1"
     inkscape:current-layer="svg4" />
  <metadata
     id="metadata10">
    <rdf:RDF>
      <cc:Work
         rdf:about="">
        <dc:format>image/svg+xml</dc:format>
        <dc:type
           rdf:resource="http://purl.org/dc/dcmitype/StillImage" />
        <dc:title />
      </cc:Work>
    </rdf:RDF>
  </metadata>
  <defs
     id="defs8" />
  <path
     style="fill:#89c3eb;fill-opacity:1;stroke:none;stroke-width:1"
     d="m 486.18,37 c -0.24,3.37 0.83,9.79 1.92,13 4.88,14.31 15.15,15.27 22.45,33 4.95,12.02 9.56,32.2 2.52,44 -6.38,10.69 -24.29,24.03 -37.07,24.79 -4.12,0.24 -9.26,-1.78 -13,-3.46 -10.35,-4.62 -25,-16.1 -28.21,-27.33 -1.62,-5.65 0.14,-11.71 2.21,-17 3.66,-9.33 10.12,-20.7 17.29,-27.7 3.64,-3.56 9.53,-6.58 11.97,-10.34 2.82,-4.34 1.7,-19.21 1.74,-24.96 0.08,-13.21 9.72,-14.47 20,-19 1.1,4.06 -1.49,10.42 -1.82,15 z"
     id="選択範囲"
     inkscape:connector-curvature="0" />
  <g
     aria-label="Mitama"
     transform="matrix(0.74999995,0,0,0.74999995,0,5.9999996)"
     style="font-style:normal;font-variant:normal;font-weight:normal;font-stretch:normal;font-size:153.33332825px;line-height:1.25;font-family:Manjari;-inkscape-font-specification:'Manjari, Normal';font-variant-ligatures:normal;font-variant-caps:normal;font-variant-numeric:normal;font-feature-settings:normal;text-align:start;letter-spacing:20px;word-spacing:0px;writing-mode:lr-tb;text-anchor:start;fill:#000000;fill-opacity:1;stroke:none"
     id="flowRoot13">
    <path
       d="m 53.886718,68.830945 v 93.587235 c 0,3.06966 2.545573,5.61524 5.615235,5.61524 3.069661,0 5.615234,-2.54558 5.615234,-5.61524 V 88.896049 L 101.57877,148.4924 c 0.89844,1.4974 3.06967,2.69531 4.79167,2.69531 1.72201,0 3.89323,-1.19791 4.79167,-2.69531 l 36.61132,-59.671221 v 73.896481 c 0,3.06966 2.54558,5.61524 5.61524,5.61524 3.06966,0 5.61523,-2.54558 5.61523,-5.61524 V 68.905815 c 0,-3.069661 -2.54557,-5.615234 -5.61523,-5.615234 -1.72201,0 -3.89323,1.197917 -4.79167,2.695312 L 106.37044,134.79123 64.593098,66.435112 c -1.048177,-1.722005 -3.144531,-3.219401 -5.091145,-3.219401 -3.294271,0 -5.615235,2.845052 -5.615235,5.615234 z"
       style="letter-spacing:20px"
       id="path23"
       inkscape:connector-curvature="0" />
    <path
       d="m 207.5612,78.788627 c 4.34245,0 8.08593,-3.51888 8.08593,-7.936197 0,-4.417318 -3.74348,-7.936198 -8.08593,-7.936198 -4.34245,0 -8.08594,3.51888 -8.08594,7.936198 0,4.417317 3.74349,7.936197 8.08594,7.936197 z m -5.4655,16.246745 0.14974,67.906898 c 0,3.14453 2.47071,5.6901 5.61524,5.6901 3.06966,0 5.61523,-2.54557 5.61523,-5.61523 l -0.14974,-67.158201 c 0,-3.36914 -2.54557,-5.690104 -6.06445,-5.690104 -2.09636,0 -5.16602,2.246094 -5.16602,4.866537 z"
       style="letter-spacing:20px"
       id="path25"
       inkscape:connector-curvature="0" />
    <path
       d="m 265.22069,74.521049 -0.0749,16.845703 h -11.52995 c -2.91992,0 -5.24088,2.320963 -5.24088,5.240885 0,2.919922 2.32096,5.240883 5.24088,5.240883 h 11.52995 l -0.0749,46.49414 c 0,11.97917 5.91472,20.28971 17.74414,20.28971 5.61524,0 15.49805,-1.87174 15.49805,-8.1608 0,-3.06966 -2.54557,-5.61524 -5.61524,-5.61524 -3.74348,0 -5.98958,2.47071 -10.33203,2.47071 -4.9414,0 -6.06445,-3.51888 -6.06445,-8.83464 l 0.0749,-46.71875 14.59961,0.0749 c 2.91992,0 5.24088,-2.320961 5.24088,-5.240883 0,-2.919922 -2.32096,-5.240885 -5.24088,-5.240885 l -14.59961,-0.07487 0.0749,-16.770833 c 0,-3.069661 -2.54557,-5.615234 -5.61523,-5.615234 -3.14453,0 -5.61524,2.545573 -5.61524,5.615234 z"
       style="letter-spacing:20px"
       id="path27"
       inkscape:connector-curvature="0" />
    <path
       d="m 366.22981,90.168835 c -20.96354,0 -36.61133,18.792315 -36.61133,39.231765 0,20.51433 15.72265,39.00717 36.23698,39.00717 9.95768,0 19.39127,-6.88803 25.97981,-14.07553 v 8.53516 c 0,2.91992 2.32097,5.24089 5.24089,5.24089 2.91992,0 5.24088,-2.32097 5.24088,-5.24089 V 95.185111 c 0,-2.919922 -2.32096,-5.240885 -5.24088,-5.240885 -2.91992,0 -4.56706,2.395833 -4.56706,5.240885 l -0.67383,9.433589 C 385.47134,97.730684 376.93619,90.168835 366.22981,90.168835 Z m 25.97981,38.782555 c 0,14.59961 -12.05403,28.22591 -26.35416,28.22591 -14.22526,0 -25.00651,-13.4017 -25.00651,-27.7767 0,-14.52473 10.85612,-28.0013 25.45573,-28.0013 14.375,0 25.90494,13.10222 25.90494,27.55209 z"
       style="letter-spacing:20px"
       id="path29"
       inkscape:connector-curvature="0" />
    <path
       d="m 497.41144,106.19097 c -3.66862,-8.610026 -11.52995,-16.246744 -23.58399,-16.246744 -9.6582,0 -18.49284,7.936198 -22.23633,14.300134 l -0.37434,-8.834639 c 0.0749,-3.144532 -2.09636,-5.465495 -5.24089,-5.465495 -3.14453,0 -5.46549,2.320963 -5.61523,5.390625 l 0.0749,67.382809 c 0,3.14453 2.4707,5.69011 5.61523,5.69011 3.06966,0 5.61523,-2.54558 5.61523,-5.61524 l 0.0749,-38.10872 c 0,-13.6263 8.01107,-23.35938 22.3112,-23.35938 12.27865,0 15.04883,10.85612 15.04883,23.35938 l 0.0749,37.88411 c 0,3.14453 2.4707,5.69011 5.61523,5.69011 3.06966,0 5.61524,-2.54558 5.61524,-5.61524 l 0.14974,-37.95898 c 0.0749,-11.97917 6.81315,-23.35938 22.61067,-23.35938 12.05404,0 14.67448,11.08073 14.67448,23.35938 l 0.0749,37.6595 c 0,3.14453 2.4707,5.69011 5.61524,5.69011 3.06966,0 5.61523,-2.54558 5.61523,-5.61524 l -0.0749,-37.73437 c -0.0749,-19.91537 -6.81315,-34.739584 -25.75521,-34.739584 -12.72786,0 -21.03841,8.310547 -25.90494,16.246744 z"
       style="letter-spacing:20px"
       id="path31"
       inkscape:connector-curvature="0" />
  </g>
</svg>
