<?xml version="1.0" encoding="UTF-8" standalone="no"?>
<svg
   xmlns:dc="http://purl.org/dc/elements/1.1/"
   xmlns:cc="http://creativecommons.org/ns#"
   xmlns:rdf="http://www.w3.org/1999/02/22-rdf-syntax-ns#"
   xmlns:svg="http://www.w3.org/2000/svg"
   xmlns="http://www.w3.org/2000/svg"
>
    <defs>
        <symbol
           id="mypage"
           viewBox="0 0 225 225">
          <path
             id="path109"
             d="M 112.26465,0.13671875 A 112.29199,112.4192 0 0 0 -0.02734375,112.55592 112.29199,112.4192 0 0 0 112.26465,224.97512 112.29199,112.4192 0 0 0 224.55664,112.55592 112.29199,112.4192 0 0 0 112.26465,0.13671875 Z M 126.5625,37.5 c 1.25157,4.601265 -1.68649,11.825019 -2.06709,17.016578 -0.27213,3.820786 0.94177,11.108543 2.17493,14.7477 5.53867,16.236699 17.1878,17.326191 25.46491,37.438302 5.61098,13.63137 10.84322,36.52939 2.85664,49.91529 -7.23459,12.12505 -27.55012,27.26468 -42.03638,28.12676 -4.67757,0.27178 -10.50629,-2.02449 -14.740159,-3.93028 -11.739926,-5.23697 -28.357647,-18.26078 -31.993345,-31.0031 -1.839869,-6.40768 0.154094,-13.28644 2.502079,-19.28546 4.15236,-10.58252 11.47788,-23.48784 19.609063,-31.420286 4.125409,-4.038613 10.805711,-7.468477 13.570442,-11.734123 3.20056,-4.919114 1.93218,-21.791572 1.97754,-28.317049 C 103.97186,44.07061 114.90474,42.636938 126.5625,37.5 Z" />
        </symbol>
        <symbol
           id="settings"
           viewBox="0 0 512 512">
          <path
             d="M277.58 114.56c.81-11.1 7.1-26.54 4.42-36.38-24.96 10.98-48.36 14.05-48.55 46.09-.1 13.95 2.62 50.02-4.23 60.54-5.92 9.12-20.22 16.46-29.05 25.09-17.41 16.96-33.09 44.56-41.98 67.19-5.03 12.82-9.29 27.53-5.36 41.23 7.79 27.25 43.36 55.1 68.49 66.29 9.06 4.08 21.54 8.99 31.55 8.41 31.01-1.85 74.5-34.22 89.99-60.14 17.09-28.63 5.9-77.59-6.12-106.73-17.71-43.01-42.65-45.34-54.51-80.05-2.64-7.78-5.24-23.37-4.65-31.54zM466.9 305.13c8.87 15.36 21.32 27.38 35.71 35.61l-50.31 87.14c-46.82-26.79-106.39-10.94-133.21 35.51-8.84 15.32-13.02 32.07-12.98 48.61H205.48c-.28-53.88-43.75-97.48-97.35-97.48-17.74 0-34.37 4.78-48.7 13.13L9.12 340.5c46.61-27.15 62.67-86.66 35.85-133.11-8.91-15.45-21.45-27.5-35.94-35.74L59.34 84.5c46.86 26.98 106.57 11.15 133.43-35.37C201.72 33.64 205.89 16.7 205.75 0h100.63c0 54.12 43.59 97.99 97.36 97.99 17.83 0 34.54-4.83 48.92-13.25l50.31 87.14c-46.78 27.09-62.94 86.72-36.08 133.24l.01.01z"
             id="path69" />
        </symbol>
        <symbol id="logout" viewBox="0 0 400 400">
            <path id="path100" d="M 0.60923594,200.48078 V 11.790026 H 90.284044 179.95886 v 8.407013 8.407015 H 99.625174 19.29149 V 200.48078 372.35751 h 80.333684 80.333686 v 8.40701 8.40702 H 90.284044 0.60923594 Z m 190.55897406,0 V 11.790026 H 295.78883 400.40945 V 200.48078 389.17154 H 295.78883 191.16821 Z m 190.55898,157.86504 v -12.14347 h -85.93836 -85.93836 v 12.14347 12.14346 h 85.93836 85.93836 z m 0,-82.20192 v -4.67055 h -85.93836 -85.93836 v 4.67055 4.67057 h 85.93836 85.93836 z m 0,-132.64399 V 30.47228 h -85.93836 -85.93836 v 113.02763 113.02763 h 85.93836 85.93836 z m -153.75702,64.86435 c -7.48307,-8.2687 -1.19596,-19.84964 10.18299,-18.75716 13.82337,1.32712 13.47992,20.53851 -0.38808,21.7066 -4.62266,0.38937 -7.57894,-0.50082 -9.79491,-2.94944 z M 79.074688,237.7071 C 54.927883,218.25362 34.946882,201.66624 34.672466,200.84626 c -0.439732,-1.31395 85.535384,-71.32783 89.537494,-72.91488 0.86369,-0.34253 1.57038,7.43395 1.57038,17.28107 v 17.90382 h 28.02338 28.02337 v 37.36451 37.36451 h -28.02337 -28.02338 v 17.74813 c 0,9.76148 -0.63053,17.68862 -1.40117,17.61589 -0.77064,-0.0727 -21.15765,-16.04872 -45.304482,-35.50221 z"></path>
        </symbol>
    </defs>
</svg>
