<?xml version="1.0" encoding="UTF-8" standalone="no"?>
<svg
   xmlns:dc="http://purl.org/dc/elements/1.1/"
   xmlns:cc="http://creativecommons.org/ns#"
   xmlns:rdf="http://www.w3.org/1999/02/22-rdf-syntax-ns#"
   xmlns:svg="http://www.w3.org/2000/svg"
   xmlns="http://www.w3.org/2000/svg"
   xmlns:sodipodi="http://sodipodi.sourceforge.net/DTD/sodipodi-0.dtd"
   xmlns:inkscape="http://www.inkscape.org/namespaces/inkscape"
   id="svg4"
   version="1.1"
   viewBox="0 0 530 320"
   height="4.44444in"
   width="7.36111in"
   sodipodi:docname="black_vertical.svg"
   inkscape:version="0.92.3 (2405546, 2018-03-11)">
  <sodipodi:namedview
     pagecolor="#ffffff"
     bordercolor="#666666"
     borderopacity="1"
     objecttolerance="10"
     gridtolerance="10"
     guidetolerance="10"
     inkscape:pageopacity="0"
     inkscape:pageshadow="2"
     inkscape:window-width="1853"
     inkscape:window-height="1025"
     id="namedview4599"
     showgrid="false"
     inkscape:zoom="1.4376499"
     inkscape:cx="464.96331"
     inkscape:cy="210.90898"
     inkscape:window-x="67"
     inkscape:window-y="27"
     inkscape:window-maximized="1"
     inkscape:current-layer="svg4" />
  <metadata
     id="metadata10">
    <rdf:RDF>
      <cc:Work
         rdf:about="">
        <dc:format>image/svg+xml</dc:format>
        <dc:type
           rdf:resource="http://purl.org/dc/dcmitype/StillImage" />
        <dc:title />
      </cc:Work>
    </rdf:RDF>
  </metadata>
  <defs
     id="defs8" />
  <path
     style="stroke:none;stroke-opacity:1;fill:#89c3eb;fill-opacity:1"
     d="M 281.46,29.00            C 279.21,41.68 281.79,55.04 288.46,66.00              295.32,77.26 301.37,80.14 305.62,85.09              307.89,87.73 313.06,96.66 314.73,100.00              324.46,119.46 325.28,133.90 325.00,155.00              324.82,168.63 312.98,180.04 303.00,188.00              294.57,194.72 280.89,203.50 270.00,204.82              250.99,207.12 230.62,193.02 218.04,180.00              213.89,175.70 208.39,168.60 206.27,163.00              203.65,156.07 205.14,146.86 207.34,140.00              211.99,125.51 223.33,105.74 234.04,95.04              242.02,87.06 250.28,85.07 253.57,78.00              255.11,74.69 254.99,70.57 255.00,67.00              255.00,67.00 255.00,38.00 255.00,38.00              255.04,35.00 255.03,32.67 256.74,30.04              260.75,23.87 277.69,16.32 285.00,15.00              285.00,15.00 281.46,29.00 281.46,29.00 Z"
     stroke-width="1"
     stroke="black"
     fill="none"
     id="選択範囲" />
  <g
     aria-label="Mitama"
     transform="matrix(0.75000044,0,0,0.75000044,18.650553,24.519196)"
     style="font-style:normal;font-weight:normal;font-size:40px;line-height:1.25;font-family:sans-serif;letter-spacing:-10.34000015px;word-spacing:0px;fill:#000000;fill-opacity:1;stroke:none"
     id="flowRoot138">
    <path
       d="m 31.939453,267.73329 v 93.58724 c 0,3.06966 2.545573,5.61523 5.615234,5.61523 3.069661,0 5.615234,-2.54557 5.615234,-5.61523 v -73.52214 l 36.461588,59.59635 c 0.898437,1.4974 3.069661,2.69532 4.791666,2.69532 1.722005,0 3.893229,-1.19792 4.791667,-2.69532 L 125.82617,287.72352 V 361.62 c 0,3.06967 2.54557,5.61524 5.61523,5.61524 3.06966,0 5.61524,-2.54557 5.61524,-5.61524 v -93.81184 c 0,-3.06966 -2.54558,-5.61524 -5.61524,-5.61524 -1.722,0 -3.89323,1.19792 -4.79166,2.69532 L 84.423175,333.69357 42.645833,265.33746 c -1.048177,-1.72201 -3.144531,-3.21941 -5.091146,-3.21941 -3.294271,0 -5.615234,2.84506 -5.615234,5.61524 z"
       style="font-style:normal;font-variant:normal;font-weight:normal;font-stretch:normal;font-size:153.33332825px;font-family:Manjari;-inkscape-font-specification:'Manjari, Normal';font-variant-ligatures:normal;font-variant-caps:normal;font-variant-numeric:normal;font-feature-settings:normal;text-align:start;letter-spacing:20px;writing-mode:lr-tb;text-anchor:start"
       id="path146" />
    <path
       d="m 181.61393,277.69097 c 4.34245,0 8.08594,-3.51888 8.08594,-7.9362 0,-4.41731 -3.74349,-7.93619 -8.08594,-7.93619 -4.34245,0 -8.08594,3.51888 -8.08594,7.93619 0,4.41732 3.74349,7.9362 8.08594,7.9362 z m -5.46549,16.24675 0.14974,67.90689 c 0,3.14454 2.4707,5.69011 5.61523,5.69011 3.06966,0 5.61524,-2.54557 5.61524,-5.61524 l -0.14974,-67.1582 c 0,-3.36914 -2.54558,-5.6901 -6.06446,-5.6901 -2.09635,0 -5.16601,2.24609 -5.16601,4.86654 z"
       style="font-style:normal;font-variant:normal;font-weight:normal;font-stretch:normal;font-size:153.33332825px;font-family:Manjari;-inkscape-font-specification:'Manjari, Normal';font-variant-ligatures:normal;font-variant-caps:normal;font-variant-numeric:normal;font-feature-settings:normal;text-align:start;letter-spacing:20px;writing-mode:lr-tb;text-anchor:start"
       id="path148" />
    <path
       d="m 239.27343,273.42339 -0.0749,16.84571 h -11.52995 c -2.91992,0 -5.24089,2.32096 -5.24089,5.24088 0,2.91992 2.32097,5.24089 5.24089,5.24089 h 11.52995 l -0.0749,46.49414 c 0,11.97916 5.91471,20.28971 17.74414,20.28971 5.61523,0 15.49804,-1.87175 15.49804,-8.16081 0,-3.06966 -2.54557,-5.61523 -5.61523,-5.61523 -3.74349,0 -5.98958,2.4707 -10.33203,2.4707 -4.94141,0 -6.06445,-3.51888 -6.06445,-8.83464 l 0.0749,-46.71874 14.5996,0.0749 c 2.91993,0 5.24089,-2.32097 5.24089,-5.24089 0,-2.91992 -2.32096,-5.24088 -5.24089,-5.24088 l -14.5996,-0.0749 0.0749,-16.77084 c 0,-3.06966 -2.54558,-5.61523 -5.61524,-5.61523 -3.14453,0 -5.61523,2.54557 -5.61523,5.61523 z"
       style="font-style:normal;font-variant:normal;font-weight:normal;font-stretch:normal;font-size:153.33332825px;font-family:Manjari;-inkscape-font-specification:'Manjari, Normal';font-variant-ligatures:normal;font-variant-caps:normal;font-variant-numeric:normal;font-feature-settings:normal;text-align:start;letter-spacing:20px;writing-mode:lr-tb;text-anchor:start"
       id="path150" />
    <path
       d="m 340.28254,289.07118 c -20.96354,0 -36.61133,18.79232 -36.61133,39.23177 0,20.51432 15.72266,39.00716 36.23698,39.00716 9.95768,0 19.39128,-6.88802 25.97982,-14.07552 v 8.53515 c 0,2.91993 2.32096,5.24089 5.24088,5.24089 2.91993,0 5.24089,-2.32096 5.24089,-5.24089 v -67.68229 c 0,-2.91992 -2.32096,-5.24088 -5.24089,-5.24088 -2.91992,0 -4.56705,2.39583 -4.56705,5.24088 l -0.67383,9.4336 c -6.36393,-6.88802 -14.89909,-14.44987 -25.60547,-14.44987 z m 25.97982,38.78255 c 0,14.59961 -12.05404,28.22591 -26.35417,28.22591 -14.22526,0 -25.00651,-13.40169 -25.00651,-27.77669 0,-14.52474 10.85612,-28.0013 25.45573,-28.0013 14.375,0 25.90495,13.10221 25.90495,27.55208 z"
       style="font-style:normal;font-variant:normal;font-weight:normal;font-stretch:normal;font-size:153.33332825px;font-family:Manjari;-inkscape-font-specification:'Manjari, Normal';font-variant-ligatures:normal;font-variant-caps:normal;font-variant-numeric:normal;font-feature-settings:normal;text-align:start;letter-spacing:20px;writing-mode:lr-tb;text-anchor:start"
       id="path152" />
    <path
       d="m 471.46417,305.09331 c -3.66862,-8.61002 -11.52995,-16.24674 -23.58398,-16.24674 -9.65821,0 -18.49284,7.9362 -22.23633,14.30013 l -0.37435,-8.83464 c 0.0749,-3.14453 -2.09635,-5.46549 -5.24088,-5.46549 -3.14454,0 -5.4655,2.32096 -5.61524,5.39062 l 0.0749,67.38281 c 0,3.14454 2.4707,5.69011 5.61523,5.69011 3.06967,0 5.61524,-2.54557 5.61524,-5.61524 l 0.0749,-38.10872 c 0,-13.6263 8.01107,-23.35937 22.3112,-23.35937 12.27864,0 15.04882,10.85612 15.04882,23.35937 l 0.0749,37.88412 c 0,3.14453 2.47071,5.6901 5.61524,5.6901 3.06966,0 5.61523,-2.54557 5.61523,-5.61523 l 0.14974,-37.95899 c 0.0749,-11.97916 6.81315,-23.35937 22.61068,-23.35937 12.05403,0 14.67448,11.08073 14.67448,23.35937 l 0.0749,37.65951 c 0,3.14453 2.4707,5.6901 5.61523,5.6901 3.06966,0 5.61523,-2.54557 5.61523,-5.61523 l -0.0749,-37.73438 c -0.0749,-19.91536 -6.81315,-34.73958 -25.7552,-34.73958 -12.72787,0 -21.03841,8.31055 -25.90495,16.24674 z"
       style="font-style:normal;font-variant:normal;font-weight:normal;font-stretch:normal;font-size:153.33332825px;font-family:Manjari;-inkscape-font-specification:'Manjari, Normal';font-variant-ligatures:normal;font-variant-caps:normal;font-variant-numeric:normal;font-feature-settings:normal;text-align:start;letter-spacing:20px;writing-mode:lr-tb;text-anchor:start"
       id="path154" />
    <path
       d="m 596.20701,289.07118 c -20.96354,0 -36.61133,18.79232 -36.61133,39.23177 0,20.51432 15.72266,39.00716 36.23698,39.00716 9.95768,0 19.39128,-6.88802 25.97982,-14.07552 v 8.53515 c 0,2.91993 2.32096,5.24089 5.24088,5.24089 2.91992,0 5.24089,-2.32096 5.24089,-5.24089 v -67.68229 c 0,-2.91992 -2.32097,-5.24088 -5.24089,-5.24088 -2.91992,0 -4.56705,2.39583 -4.56705,5.24088 l -0.67383,9.4336 c -6.36393,-6.88802 -14.89909,-14.44987 -25.60547,-14.44987 z m 25.97982,38.78255 c 0,14.59961 -12.05404,28.22591 -26.35417,28.22591 -14.22526,0 -25.00651,-13.40169 -25.00651,-27.77669 0,-14.52474 10.85612,-28.0013 25.45573,-28.0013 14.375,0 25.90495,13.10221 25.90495,27.55208 z"
       style="font-style:normal;font-variant:normal;font-weight:normal;font-stretch:normal;font-size:153.33332825px;font-family:Manjari;-inkscape-font-specification:'Manjari, Normal';font-variant-ligatures:normal;font-variant-caps:normal;font-variant-numeric:normal;font-feature-settings:normal;text-align:start;letter-spacing:20px;writing-mode:lr-tb;text-anchor:start"
       id="path156" />
  </g>
</svg>
